PathFileType  4	(X/Y/Z) C:\Users\antoi\Documents\MyRepositories\mobilecap\ResultsAnalysis
DataRate	CameraRate	NumFrames	NumMarkers	Units	OrigDataRate	OrigDataStartFrame	OrigNumFrames
100.0	100.0	7	51	mm	100.0	130	259
Frame#	Time	r_knee			r_shank_antsup			r_ankle			r_calc			r_5meta			r_toe			L_knee			L_shank_antsup			L_ankle			L_calc			L_5meta			L_toe			r_sh2			r_sh3			r_sh4			L_sh2			L_sh3			r_thigh1			r_thigh2			r_thigh3			r_thigh4			r_thigh5			L_thigh1			L_thigh2			L_thigh3			L_thigh4			r.ASIS			r.PSIS			L.ASIS			L.PSIS			C7			R_Shoulder			L_Shoulder			R_Sternum			L_Sternum			R_humerus			R_elbow_med			R_elbow_lat			R_forearm			R_wrist_radius			R_wrist_ulna			L_humerus			L_elbow_med			L_elbow_lat			L_forearm			L_wrist_radius			L_wrist_ulna			R_HJC			L_HJC			R_HJC_reg			L_HJC_reg			
		X1	Y1	Z1	X2	Y2	Z2	X3	Y3	Z3	X4	Y4	Z4	X5	Y5	Z5	X6	Y6	Z6	X7	Y7	Z7	X8	Y8	Z8	X9	Y9	Z9	X10	Y10	Z10	X11	Y11	Z11	X12	Y12	Z12	X13	Y13	Z13	X14	Y14	Z14	X15	Y15	Z15	X16	Y16	Z16	X17	Y17	Z17	X18	Y18	Z18	X19	Y19	Z19	X20	Y20	Z20	X21	Y21	Z21	X22	Y22	Z22	X23	Y23	Z23	X24	Y24	Z24	X25	Y25	Z25	X26	Y26	Z26	X27	Y27	Z27	X28	Y28	Z28	X29	Y29	Z29	X30	Y30	Z30	X31	Y31	Z31	X32	Y32	Z32	X33	Y33	Z33	X34	Y34	Z34	X35	Y35	Z35	X36	Y36	Z36	X37	Y37	Z37	X38	Y38	Z38	X39	Y39	Z39	X40	Y40	Z40	X41	Y41	Z41	X42	Y42	Z42	X43	Y43	Z43	X44	Y44	Z44	X45	Y45	Z45	X46	Y46	Z46	X47	Y47	Z47	X48	Y48	Z48	X49	Y49	Z49	X50	Y50	Z50	X51	Y51	Z51	

130	1.29000000	-460.65160	931.21680	-390.39644	-416.12580	819.04386	-393.92106	-451.93722	472.13040	-413.23931	-509.23524	461.07559	-476.39358	-342.05729	354.22808	-383.63197	-287.11224	390.38911	-433.02659	-478.68838	922.81842	-745.96305	-416.15823	830.09375	-734.00013	-433.64360	478.65284	-741.62049	-495.44084	449.05790	-687.31328	-299.07887	390.63810	-770.91273	-262.46033	415.45757	-705.70910	-393.89944	706.67817	-412.06692	-482.51014	798.81098	-358.40839	-455.67382	685.09729	-359.46651	-497.43621	816.52615	-770.06238	-454.90489	702.41853	-788.24871	-408.66900	1174.93083	-407.08406	-391.29024	1065.44788	-421.31539	-412.97176	1031.82100	-366.91994	-489.01100	1148.69663	-331.07837	-465.89984	1034.89211	-353.33341	-454.91113	1182.46681	-756.91281	-420.13258	1050.29507	-744.37662	-561.02061	1151.07687	-784.38247	-524.48179	1018.85275	-772.03092	-455.34741	1408.57634	-422.56277	-643.46365	1500.59323	-500.87130	-470.12562	1402.46771	-686.32805	-647.14807	1500.41073	-600.36744	-434.12238	1964.57092	-536.15902	-399.25000	1916.61506	-378.21015	-371.50349	1957.40590	-671.11577	-325.63891	1845.93242	-515.13939	-324.89279	1846.06921	-562.61031	-484.63279	1884.06417	-254.89958	-707.77372	1816.96158	-194.42233	-674.17449	1889.25802	-162.14182	-701.50738	1827.94711	4.31652	-752.97669	1792.17094	111.03954	-778.98846	1825.39927	107.31958	-431.58911	1988.19371	-806.42025	-603.83075	1960.25751	-944.06741	-573.29801	2037.12427	-938.29632	-577.48347	2057.71646	-1108.34146	-618.67739	2103.59205	-1205.07213	-648.72070	2132.53471	-1180.31571	-559.59513	1356.76519	-452.47656	-570.06764	1340.79981	-665.01267	-552.45952	1351.42190	-456.47119	-558.89210	1351.10096	-630.74601	
131	1.30000000	-448.67540	912.30542	-389.00553	-403.75252	800.02348	-392.01913	-438.57035	452.97422	-411.06422	-495.10907	440.63999	-474.76186	-327.34056	337.54807	-378.58060	-272.42711	374.25992	-427.59759	-466.20953	903.81225	-746.61442	-402.85845	811.61976	-734.71772	-418.00663	459.96335	-742.49178	-479.84046	430.09862	-688.51114	-282.96933	372.50828	-771.46284	-246.68497	397.43011	-705.99431	-381.17112	687.79450	-409.73709	-470.38841	779.71165	-357.10040	-442.72173	665.78675	-358.06727	-483.91010	797.51124	-770.91305	-440.44456	683.77958	-789.34335	-399.07699	1156.50470	-406.09626	-380.98307	1047.16768	-420.15500	-401.93974	1013.53974	-365.75456	-479.11064	1129.81008	-330.09731	-454.91792	1016.31014	-352.04767	-445.05655	1163.66540	-756.86031	-409.02491	1031.70882	-744.83875	-550.93623	1131.14274	-784.53636	-513.10316	999.32026	-772.25758	-446.46484	1388.63666	-422.47764	-632.74449	1480.75988	-501.24005	-461.46869	1382.46556	-686.11017	-638.40711	1480.55340	-601.43568	-421.31337	1944.09194	-535.08421	-387.26524	1895.97679	-377.72577	-359.13868	1936.53623	-670.36320	-313.83279	1823.99773	-514.52542	-313.36150	1824.22207	-561.54902	-476.60726	1866.21304	-256.41988	-703.87573	1806.18371	-204.04401	-668.73087	1876.40529	-169.94215	-709.43348	1817.87117	-6.01516	-769.39333	1785.46228	97.32945	-793.80347	1819.86514	91.55833	-425.87053	1969.86811	-802.53181	-607.22151	1946.90771	-927.67002	-576.14950	2022.10935	-923.76789	-589.29237	2043.03308	-1095.49293	-637.17650	2089.88492	-1191.15722	-664.53288	2119.26452	-1161.70812	-550.61286	1337.07255	-452.56836	-561.13253	1320.71338	-665.07199	-542.02971	1332.19416	-454.61446	-551.84210	1331.83610	-628.64228	
132	1.31000000	-436.63061	892.46032	-387.42555	-391.33733	780.00932	-390.04550	-425.65315	432.80872	-408.69110	-481.32716	419.11385	-473.00287	-313.29919	319.84589	-373.09690	-258.35162	356.66043	-422.19510	-453.62702	883.99617	-747.25957	-389.41354	792.33761	-735.56817	-402.74675	440.72870	-743.61856	-464.63657	410.73819	-689.58054	-267.45543	352.96280	-771.82586	-231.32455	378.04240	-706.37385	-368.53477	667.81026	-407.39253	-458.31206	759.60423	-355.62906	-430.43480	645.96434	-355.79409	-470.32728	777.95382	-771.83480	-426.19358	664.50973	-790.63172	-389.19494	1137.01727	-405.14485	-370.47580	1027.84244	-418.62830	-390.63259	994.02142	-364.67052	-469.10152	1109.77570	-329.31972	-443.99573	996.49576	-351.07985	-434.98939	1144.29962	-756.78354	-397.67903	1012.54080	-745.45014	-540.66929	1110.52516	-784.72439	-501.40190	979.14943	-772.82074	-437.37625	1367.80155	-422.61212	-622.68237	1459.98532	-501.60250	-452.93767	1361.78740	-685.87240	-629.61446	1459.68314	-602.10254	-408.55896	1922.71262	-533.86217	-375.14133	1874.37386	-377.28901	-347.38657	1914.90042	-669.62077	-302.44675	1801.27469	-513.84963	-302.04066	1801.30494	-561.08453	-468.58249	1847.39575	-258.04426	-699.60720	1794.61823	-214.68990	-662.86620	1862.27724	-178.10660	-717.07861	1806.33715	-17.93532	-785.10620	1777.17251	81.22880	-807.24991	1812.78326	74.08992	-419.91831	1950.11222	-799.02798	-608.99884	1931.43564	-910.22372	-578.67696	2004.57097	-909.72518	-601.37648	2025.40176	-1082.16739	-655.59056	2073.31934	-1175.45843	-679.87006	2102.83085	-1142.15876	-541.53619	1316.39931	-452.69083	-552.23027	1299.82042	-665.16874	-532.08692	1312.04448	-453.50491	-544.07658	1311.52236	-627.20034	
133	1.32000000	-424.53340	871.65138	-385.88723	-378.97247	759.04612	-387.75607	-413.05019	411.86586	-406.05101	-467.83284	396.71258	-470.95676	-299.90884	301.05939	-367.28144	-244.67754	337.53519	-416.81945	-440.80549	863.57651	-748.21265	-375.75754	772.39049	-736.71933	-387.72234	420.85866	-744.89291	-449.70712	391.10660	-690.60916	-252.47275	331.98421	-772.01837	-216.41376	357.28447	-706.79503	-355.92411	646.70710	-404.89156	-446.28948	738.65849	-353.56425	-418.80825	625.48937	-352.96355	-456.80653	757.73435	-772.79186	-412.34229	644.41946	-791.57910	-378.97846	1116.50972	-404.33755	-359.41812	1007.31551	-417.17215	-379.18198	973.42655	-363.44263	-459.03547	1088.76261	-328.65623	-432.98382	975.57797	-349.99579	-424.81370	1124.25070	-757.10314	-386.09772	992.79910	-746.16076	-530.10649	1089.29377	-785.27601	-489.38865	958.37243	-773.74287	-428.29570	1346.11246	-423.05910	-613.94116	1438.28528	-501.76801	-444.65565	1340.46907	-685.69783	-620.83894	1437.98158	-602.15721	-395.91504	1900.26257	-532.70813	-363.05593	1851.98922	-376.73861	-336.16569	1892.36195	-668.85068	-291.24247	1777.69071	-513.30742	-291.14096	1777.39946	-560.89921	-460.40227	1826.89485	-259.55516	-694.78576	1782.15869	-226.20614	-656.73917	1846.70676	-186.64775	-724.03846	1792.85737	-31.29974	-800.06175	1767.13549	62.86945	-819.50281	1803.86724	55.11561	-413.72718	1928.77149	-795.86294	-610.26371	1913.22180	-892.75579	-579.65480	1985.42139	-896.39190	-613.42501	2004.63952	-1065.68724	-673.36657	2052.64506	-1156.72799	-694.38962	2083.08428	-1121.81011	-532.61349	1294.74038	-452.85675	-543.60288	1278.26765	-665.32745	-523.28404	1290.59804	-453.86813	-535.19857	1290.07478	-627.18113	
134	1.33000000	-412.47665	849.77596	-384.46765	-366.63566	737.11821	-385.25244	-400.49387	390.20054	-403.14010	-454.53437	374.15030	-468.52244	-287.53608	280.69551	-361.44082	-231.66194	316.62968	-411.06816	-427.63159	842.69401	-749.67456	-361.94457	751.84759	-738.37770	-372.98018	400.20206	-746.17699	-435.13010	371.15110	-691.73591	-238.05091	310.00913	-772.18198	-202.05147	335.48990	-706.98492	-343.21687	624.66744	-402.03471	-434.24720	716.85387	-351.09227	-407.00765	603.76397	-350.38252	-443.35622	736.78830	-773.66611	-398.79895	623.53270	-792.28535	-368.76667	1095.14102	-403.53154	-347.91019	985.76528	-415.89378	-367.75954	952.17931	-361.68088	-448.98762	1067.01546	-327.93815	-421.82687	953.81172	-348.67416	-414.54636	1103.51896	-757.76699	-374.22142	972.51152	-746.98906	-519.25073	1067.48576	-786.15094	-477.04795	936.99115	-774.96084	-419.42958	1323.76040	-423.56678	-605.38728	1415.79377	-501.57563	-436.76150	1318.51184	-685.55538	-612.28794	1415.60900	-602.09344	-383.43919	1876.62772	-531.64144	-351.09020	1828.79274	-376.12601	-325.36894	1868.63214	-668.18244	-279.90765	1753.17339	-512.88504	-280.72978	1752.53012	-560.53121	-452.22965	1804.97363	-261.05206	-689.35338	1768.67289	-238.21848	-650.47940	1829.54912	-195.35137	-730.23246	1777.23207	-45.98133	-813.95258	1755.21758	42.59407	-830.66136	1792.95401	34.58434	-407.65008	1905.29871	-792.97120	-611.53497	1892.65759	-875.07086	-579.43883	1964.42669	-882.97882	-625.24703	1980.79168	-1046.03675	-690.53209	2028.14941	-1134.75476	-708.26191	2060.16474	-1100.66510	-523.83367	1272.34675	-452.96198	-535.31962	1256.06877	-665.42226	-514.68797	1268.28344	-454.33962	-526.55422	1267.96601	-627.25376	
135	1.34000000	-400.40903	827.02141	-382.80433	-354.07440	714.40246	-382.74523	-387.84886	367.81682	-399.92269	-441.24285	352.01723	-465.89092	-276.43592	258.13960	-356.10574	-219.57404	293.51609	-405.03228	-413.99242	821.23155	-751.36735	-347.99426	730.65827	-740.47605	-358.78443	378.86968	-747.32236	-421.12826	350.57678	-692.85791	-224.30193	287.53463	-772.34923	-188.31942	313.10532	-706.98811	-330.26607	601.96517	-398.87961	-421.76253	694.15585	-348.72182	-394.38223	580.93210	-347.92589	-429.78095	715.30599	-774.68954	-385.28634	602.12810	-793.40392	-358.72815	1073.13519	-402.38144	-336.28326	963.48027	-414.34774	-356.34764	930.66581	-359.10052	-439.04535	1044.61363	-327.21463	-410.61469	931.43161	-347.24071	-404.09976	1082.30568	-758.51002	-361.99304	951.79428	-748.04456	-508.23195	1045.09777	-786.98109	-464.34234	915.03832	-776.35406	-410.62175	1300.68632	-424.11363	-596.86856	1392.47118	-501.20582	-429.24397	1295.94804	-685.52754	-604.16407	1392.59572	-602.06890	-371.23062	1851.82797	-530.54074	-339.19508	1804.46700	-375.48470	-314.76717	1843.37916	-667.79403	-268.42606	1727.66725	-512.37304	-270.13604	1726.58511	-560.23639	-444.21584	1781.91184	-262.75976	-683.28670	1753.69916	-250.64526	-644.09980	1810.67319	-204.05877	-735.62208	1759.66562	-61.88083	-826.35042	1741.35504	20.97919	-840.46199	1779.95025	12.64351	-402.11009	1879.57415	-790.32336	-612.56663	1870.84383	-856.55636	-578.39089	1940.77987	-869.86721	-636.55046	1954.08965	-1026.81111	-707.08883	2001.24285	-1111.27973	-721.42804	2034.28272	-1079.17766	-515.13710	1249.20707	-453.11018	-527.34691	1233.21423	-665.55227	-505.92563	1245.05610	-454.62394	-518.40455	1245.26825	-627.17065	
136	1.35000000	-388.02476	803.75251	-380.63701	-340.91933	691.13243	-380.22102	-375.38272	344.75408	-396.33737	-428.03910	330.02264	-463.41043	-266.23698	233.60760	-351.53338	-208.21527	268.51010	-399.29280	-399.74408	799.16887	-753.16267	-333.71316	708.84099	-742.81513	-345.24337	357.06448	-748.09236	-407.80017	329.27859	-693.78564	-211.31879	264.68772	-772.57884	-175.23492	290.12585	-707.19977	-316.99874	578.65839	-395.71438	-408.46602	670.85674	-346.34789	-380.86667	557.59046	-345.07329	-415.78946	693.46749	-776.21781	-371.69085	580.22802	-794.95158	-348.38697	1050.58173	-400.88846	-324.71571	940.45257	-412.45728	-344.84820	908.83753	-355.93889	-429.19758	1021.70684	-326.71556	-399.38282	908.62981	-345.56562	-393.43489	1060.76846	-759.27455	-349.39860	930.75281	-749.35341	-497.12694	1022.09691	-787.76539	-451.17803	892.66457	-778.05225	-401.80717	1276.59491	-424.97877	-588.89769	1368.30353	-500.59895	-421.98729	1272.81482	-685.86200	-596.44799	1368.89300	-601.60617	-359.14223	1825.90061	-529.39307	-327.25569	1778.74158	-374.63930	-304.18132	1816.37175	-667.77831	-256.83048	1701.00493	-511.60069	-258.78850	1699.48021	-560.38656	-436.40462	1757.54177	-264.63939	-676.51729	1736.35297	-263.69996	-637.73478	1789.86612	-213.12464	-740.06795	1740.51849	-78.75151	-837.04747	1725.42029	-1.65967	-848.74477	1764.66637	-10.41797	-397.05358	1852.06185	-787.89646	-612.86876	1847.82796	-837.88287	-576.87849	1914.69893	-857.50929	-647.04833	1924.67967	-1009.42680	-722.63791	1971.90526	-1088.05057	-733.74921	2005.43778	-1057.79952	-506.51960	1225.06663	-453.46722	-519.77794	1209.81432	-665.89862	-497.42847	1220.78437	-455.41959	-510.30518	1221.79019	-627.65318	
